<?xml version="1.0" encoding="utf-8"?>
<!-- Generator: Adobe Illustrator 27.2.0, SVG Export Plug-In . SVG Version: 6.00 Build 0)  -->
<svg version="1.1" id="レイヤー_1" xmlns="http://www.w3.org/2000/svg" xmlns:xlink="http://www.w3.org/1999/xlink" x="0px"
	 y="0px" width="300px" height="300px" viewBox="0 0 300 300" style="enable-background:new 0 0 300 300;" xml:space="preserve">
<style type="text/css">
	.st0{fill:none;stroke:#333333;stroke-width:8;stroke-linecap:round;stroke-linejoin:round;stroke-miterlimit:10;}
</style>
<rect x="82.74" y="142.89" class="st0" width="30.17" height="70.71"/>
<path class="st0" d="M112.91,156.42"/>
<path class="st0" d="M203.84,171.95h3.41c6.32,0,11.4-5.04,10.99-11.11c-0.38-5.53-5.5-9.72-11.37-9.72h-6.97h-13.95"/>
<path class="st0" d="M190.05,192.78h12.67c6.08,0,11.01-4.66,11.01-10.41v0c0-5.75-3.82-10.41-9.9-10.41h-12.91"/>
<path class="st0" d="M199.91,151.12c6,0,8.71-4.54,8.78-10.18c0.08-5.86-6.06-10.65-12.26-10.65h-43.44v-1.04v-19.52
	c0-11.27-6.63-23.33-12.71-23.33h0c-5.21,0-9.32,4.17-9.32,9.32l-1.91,34.9c-0.07,1.34-0.51,2.64-1.26,3.75l-14.88,18.48v50.33
	c0,5.75,4.93,10.41,11.01,10.41h64.64c5.87,0,12.1-4.19,12.48-9.72c0.42-6.06-4.66-11.11-10.99-11.11h-4.85"/>
</svg>
